<svg xmlns="http://www.w3.org/2000/svg" viewBox="0 0 161.78 160.8"><defs><style>.cls-1{fill:#3c3;}.cls-1,.cls-2{fill-rule:evenodd;}.cls-2{fill:#36d4d7;}</style></defs><title>Asset 2</title><g id="Layer_2" data-name="Layer 2"><g id="Layer_1-2" data-name="Layer 1"><path class="cls-1" d="M138.92,17.73H107.85L58.06,90.44h9.87L20.13,160.8l90-92.05H81.51l22.77-6.57,34.64-44.45Z"/><path class="cls-2" d="M22.12,17.73H53.19l25.2,35.73L62.9,76.08,22.12,17.73Zm60.28,11A51.72,51.72,0,0,1,96,31.09a56.35,56.35,0,0,0-6.28-.59,54.78,54.78,0,0,0-20.31,3.09l-2.21-3.13A51.89,51.89,0,0,1,82.4,28.77ZM42.53,54.13a55.06,55.06,0,0,0-2.62,58.53,51.82,51.82,0,0,1-.74-63.33l3.36,4.8Zm40.22-35a61.48,61.48,0,0,1,14.59,2.29,66.6,66.6,0,0,0-7.26-.67,64.51,64.51,0,0,0-26.47,4.6l-2.27-3.21a61.29,61.29,0,0,1,21.41-3ZM36.63,45.68a64.79,64.79,0,0,0-5.28,71.67,61.45,61.45,0,0,1,2.06-76.26l3.22,4.59Zm46.46-36a71.17,71.17,0,0,1,17.35,2.79,74.9,74.9,0,0,0-10-1A73.65,73.65,0,0,0,58.1,17.54L55.67,14.1A70.84,70.84,0,0,1,83.09,9.67Zm-52,28.05a74.13,74.13,0,0,0-6.95,85.75,70.9,70.9,0,0,1,3.72-90.38l3.23,4.63ZM83.44.05a80.65,80.65,0,0,1,19.43,3.1,84.36,84.36,0,0,0-12.1-1.32A83.24,83.24,0,0,0,44.82,13.61H35.73A80.21,80.21,0,0,1,83.44.05Zm-58,29.57a83.69,83.69,0,0,0-9.12,99.44A80.49,80.49,0,0,1,22.19,25l3.21,4.6ZM82.18,130.44a51.75,51.75,0,0,1-13.71-1.58,55,55,0,0,0,24.18-3.07l2,2.9a51.78,51.78,0,0,1-12.49,1.75Zm37.07-25.36a55,55,0,0,0,.82-60.71,51.8,51.8,0,0,1,2.53,65.49l-3.35-4.78Zm-36.89,35a62,62,0,0,1-14.7-1.5,67.63,67.63,0,0,0,7.29.28A64.55,64.55,0,0,0,98.4,134l2.08,3a61.94,61.94,0,0,1-18.12,3.06Zm42.81-26.55a64.77,64.77,0,0,0,3.2-74.31,61.44,61.44,0,0,1,0,78.87l-3.19-4.56Zm-42.65,36a71,71,0,0,1-17.47-1.86,74.15,74.15,0,0,0,38.8-5.83l2.25,3.22a70.79,70.79,0,0,1-23.58,4.47Zm48.23-28a74.12,74.12,0,0,0,4.52-88.78A70.92,70.92,0,0,1,134,126.1l-3.2-4.59Zm-48,37.66a80.48,80.48,0,0,1-19.57-2,84,84,0,0,0,54.24-11.55h8.69A80.18,80.18,0,0,1,82.7,159.17Zm53.72-29.54a83.7,83.7,0,0,0,6.37-102.91,80.52,80.52,0,0,1-3.2,107.45l-3.17-4.54Zm-35.8-44,39,55.84H108.59L82.27,103.68l18.35-18.06Z"/></g></g></svg>