<?xml version="1.0" encoding="UTF-8" standalone="no"?>
<!-- Generator: Adobe Illustrator 16.0.0, SVG Export Plug-In . SVG Version: 6.00 Build 0)  -->

<svg
   xmlns:dc="http://purl.org/dc/elements/1.1/"
   xmlns:cc="http://creativecommons.org/ns#"
   xmlns:rdf="http://www.w3.org/1999/02/22-rdf-syntax-ns#"
   xmlns:svg="http://www.w3.org/2000/svg"
   xmlns="http://www.w3.org/2000/svg"
   xmlns:sodipodi="http://sodipodi.sourceforge.net/DTD/sodipodi-0.dtd"
   xmlns:inkscape="http://www.inkscape.org/namespaces/inkscape"
   version="1.1"
   id="Capa_1"
   x="0px"
   y="0px"
   width="612px"
   height="612px"
   viewBox="0 0 612 612"
   style="enable-background:new 0 0 612 612;"
   xml:space="preserve"
   sodipodi:docname="wind-turbine.svg"
   inkscape:version="0.92.1 r15371"><metadata
     id="metadata4617"><rdf:RDF><cc:Work
         rdf:about=""><dc:format>image/svg+xml</dc:format><dc:type
           rdf:resource="http://purl.org/dc/dcmitype/StillImage" /><dc:title></dc:title></cc:Work></rdf:RDF></metadata><defs
     id="defs4615" /><sodipodi:namedview
     pagecolor="#ffffff"
     bordercolor="#666666"
     borderopacity="1"
     objecttolerance="10"
     gridtolerance="10"
     guidetolerance="10"
     inkscape:pageopacity="0"
     inkscape:pageshadow="2"
     inkscape:window-width="1920"
     inkscape:window-height="1017"
     id="namedview4613"
     showgrid="false"
     inkscape:zoom="0.69281046"
     inkscape:cx="413.78905"
     inkscape:cy="120.85317"
     inkscape:window-x="-8"
     inkscape:window-y="-8"
     inkscape:window-maximized="1"
     inkscape:current-layer="Capa_1" /><g
     id="g4580"
     transform="matrix(1.1399902,0,0,1.1399902,-42.836662,35.655844)"><g
       id="g4578"><path
         d="M 342.397,204.6 C 336.599,143.4 321.298,0 305.999,0 c -15.3,0 -30.6,143.4 -36.3,204.6 9.6,-7.7 23,-13.4 36.3,-13.4 13.299,0 26.799,3.9 36.398,13.4 z"
         id="path4568"
         inkscape:connector-curvature="0" /><circle
         cx="305.99899"
         cy="248.60001"
         id="circle4570"
         r="27.993649" /><path
         d="m 363.397,241 c 0,1.9 0,5.7 0,7.6 0,25 -14.699,45.4 -36.299,53.6 55.5,24.899 187.4,84.1 195,70.7 7.7,-13.4 -110.9,-97.5 -158.701,-131.9 z"
         id="path4572"
         inkscape:connector-curvature="0" /><path
         d="M 248.698,248.6 V 241 c -49.8,34.4 -166.4,120.5 -158.8,133.9 7.6,13.399 139.6,-45.9 195.1,-70.8 l -41.9016,170.19207 c 0,0 34.3016,0 62.9016,0 28.6,0 60.86033,0 60.86033,0 L 326.999,302.3 c -6.5,2.4 -13.5,3.8 -21,3.8 -32.5,-0.1 -57.301,-25 -57.301,-57.5 z"
         id="path4574"
         inkscape:connector-curvature="0"
         sodipodi:nodetypes="sccccscccs" /><path
         d="M 327.099,302.2 Z"
         id="path4576"
         inkscape:connector-curvature="0" /></g></g><g
     id="g4582" /><g
     id="g4584" /><g
     id="g4586" /><g
     id="g4588" /><g
     id="g4590" /><g
     id="g4592" /><g
     id="g4594" /><g
     id="g4596" /><g
     id="g4598" /><g
     id="g4600" /><g
     id="g4602" /><g
     id="g4604" /><g
     id="g4606" /><g
     id="g4608" /><g
     id="g4610" /></svg>